# xmcd
#
# Track frame offsets:
#	150
#	12422
#	23425
#	36598
#	49345
#	60625
#	69770
#	83686
#	95847
#	108325
#	118632
#	131376
#	143425
#	154761
#	168823
#	181697
#	195313
#	207458
#	218979
#	232759
#	245191
#	257737
#	269013
#	282160
#	293486
#
# Disc length: 4075 seconds
#
# Revision: 1
# Processed by: cddbd v1.5.1PL2 Copyright (c) Steve Scherf et al.
# Submitted via: audiograbber 1.83.01
#
DISCID=5d0fe919
DTITLE=Various Artist - Your Cheatin' Heart Classic Country Hits Disc 2
DYEAR=1900
DGENRE=Country
TTITLE0=Eddy Arnold - I'll Hold You In My Heart (Till I Can Hold You In My Arms
TTITLE0=)
TTITLE1=Webb Pierce - More and More
TTITLE2=George Morgan - Candy Kisses
TTITLE3=Hank Snow - I'm Movin' On
TTITLE4=Kitty Wells - It Wasn't God Who Made Honky Tonky Angels
TTITLE5=Jimmie Davis - There's A New Moon Over My Shoulder
TTITLE6=Lefty Frizzell - Always Late (With Your Kisses)
TTITLE7=Leone Payne - I Love You Because
TTITLE8=Bill Monroe - Kentucky Waltz
TTITLE9=Jonnie and Jack - (Oh Baby Mine) I Get So Lonely
TTITLE10=Carson Robinson - Life Gets Tee-Jus Don't It
TTITLE11=Ray Price - Release Me
TTITLE12=Tennessee Ernie Ford - The Shot Gun Boogie
TTITLE13=Slim Whitman - Indian Love Call
TTITLE14=Spade Cooley - Shame On You
TTITLE15=Moon Mullican - I'll Sail My Ship Alone
TTITLE16=Hank Thompson - The Wild Side Of Life
TTITLE17=Hank Williams - Kaw-Liga
TTITLE18=Wayne Raney - Why Don't You Haul Off And Love Me
TTITLE19=Red Foley - Chattanoogie Shoe Shine Boy
TTITLE20=Jimmy Wakely - One Has My Name (The Other Has My Heart)
TTITLE21=Bob Wills - New Spanish Two Step
TTITLE22=Delmore Brothers - Blues Stay Away From Me
TTITLE23=Webb Pierce - Slowly
TTITLE24=Eddy Arnold - Just A Little Lovin' (Will Go A Long Way)
EXTD=
EXTT0=
EXTT1=
EXTT2=
EXTT3=
EXTT4=
EXTT5=
EXTT6=
EXTT7=
EXTT8=
EXTT9=
EXTT10=
EXTT11=
EXTT12=
EXTT13=
EXTT14=
EXTT15=
EXTT16=
EXTT17=
EXTT18=
EXTT19=
EXTT20=
EXTT21=
EXTT22=
EXTT23=
EXTT24=
PLAYORDER=
